<svg width="50" height="50" viewBox="0 0 50 50" fill="none" xmlns="http://www.w3.org/2000/svg">
<rect width="50" height="50" rx="25" fill="white"/>
<path d="M32.5959 22.1313L25.0808 29.6465V37L32.5959 29.6465V22.1313Z" fill="black"/>
<path d="M25.0808 29.6465L17.5656 22.1313V29.6465L21.3232 33.3232L25.0808 37V29.6465Z" fill="#222222"/>
<path d="M25.0808 29.6465L17.5656 22.1313H32.5959L25.0808 29.6465Z" fill="#101010"/>
<path d="M34.3737 20.3535V27.8687L41.7272 20.5152V13L38.0505 16.6768L34.3737 20.3535Z" fill="black"/>
<path d="M34.3737 20.3535H15.7879L8.27271 13H41.7272L38.0505 16.6768L34.3737 20.3535Z" fill="#101010"/>
<path d="M15.7879 20.3535V27.8687L12.0303 24.1919L8.27271 20.5152V13L15.7879 20.3535Z" fill="#222222"/>
</svg>
