<svg xmlns="http://www.w3.org/2000/svg" viewBox="0 0 2000 1500"><mask id="b" x="0" y="0" width="2000" height="1500"><path fill="url(#a)" d="M0 0h2000v1500H0z"/></mask><path fill="rgba(250,250,250,1)" d="M0 0h2000v1500H0z"/><g style="transform-origin:center center" stroke="#f0f0f0" stroke-width=".4" mask="url(#b)"><path fill="none" d="M54.054 0h54.054v54.054H54.054zM108.108 0h54.054v54.054h-54.054zM162.162 0h54.054v54.054h-54.054zM324.324 0h54.054v54.054h-54.054zM486.486 0h54.054v54.054h-54.054zM540.541 0h54.054v54.054h-54.054zM594.595 0h54.054v54.054h-54.054z"/><path fill="#f0f0f0f1" d="M648.649 0h54.054v54.054h-54.054z"/><path fill="#f0f0f07a" d="M702.703 0h54.054v54.054h-54.054z"/><path fill="none" d="M756.757 0h54.054v54.054h-54.054zM1027.027 0h54.054v54.054h-54.054z"/><path fill="none" d="M1081.081 0h54.054v54.054h-54.054zM1135.135 0h54.054v54.054h-54.054zM1189.189 0h54.054v54.054h-54.054z"/><path fill="none" d="M1243.243 0h54.054v54.054h-54.054z"/><path fill="#f0f0f0c0" d="M1351.351 0h54.054v54.054h-54.054z"/><path fill="none" d="M1405.405 0h54.054v54.054h-54.054zM1459.459 0h54.054v54.054h-54.054z"/><path fill="#f0f0f0fb" d="M1567.568 0h54.054v54.054h-54.054z"/><path fill="none" d="M1621.622 0h54.054v54.054h-54.054z"/><path fill="none" d="M1675.676 0h54.054v54.054h-54.054z"/><path fill="#f0f0f0db" d="M1729.73 0h54.054v54.054h-54.054z"/><path fill="none" d="M1783.784 0h54.054v54.054h-54.054z"/><path fill="#f0f0f00e" d="M1945.946 0H2000v54.054h-54.054z"/><path fill="none" d="M54.054 54.054h54.054v54.054H54.054zM108.108 54.054h54.054v54.054h-54.054zM270.27 54.054h54.054v54.054H270.27zM432.432 54.054h54.054v54.054h-54.054zM540.541 54.054h54.054v54.054h-54.054zM594.595 54.054h54.054v54.054h-54.054z"/><path fill="#f0f0f0e4" d="M648.649 54.054h54.054v54.054h-54.054z"/><path fill="none" d="M756.757 54.054h54.054v54.054h-54.054zM810.811 54.054h54.054v54.054h-54.054zM1027.027 54.054h54.054v54.054h-54.054z"/><path fill="none" d="M1081.081 54.054h54.054v54.054h-54.054zM1189.189 54.054h54.054v54.054h-54.054z"/><path fill="#f0f0f038" d="M1243.243 54.054h54.054v54.054h-54.054z"/><path fill="none" d="M1297.297 54.054h54.054v54.054h-54.054z"/><path fill="#f0f0f05a" d="M1351.351 54.054h54.054v54.054h-54.054z"/><path fill="none" d="M1405.405 54.054h54.054v54.054h-54.054z"/><path fill="#f0f0f003" d="M1459.459 54.054h54.054v54.054h-54.054z"/><path fill="#f0f0f0cf" d="M1513.514 54.054h54.054v54.054h-54.054z"/><path fill="none" d="M1675.676 54.054h54.054v54.054h-54.054zM1837.838 54.054h54.054v54.054h-54.054z"/><path fill="#f0f0f0c5" d="M1945.946 54.054H2000v54.054h-54.054z"/><path fill="none" d="M0 108.108h54.054v54.054H0z"/><path fill="#f0f0f0d0" d="M108.108 108.108h54.054v54.054h-54.054z"/><path fill="none" d="M216.216 108.108h54.054v54.054h-54.054z"/><path fill="#f0f0f0ed" d="M270.27 108.108h54.054v54.054H270.27z"/><path fill="#f0f0f062" d="M378.378 108.108h54.054v54.054h-54.054z"/><path fill="none" d="M432.432 108.108h54.054v54.054h-54.054z"/><path fill="#f0f0f0b1" d="M594.595 108.108h54.054v54.054h-54.054z"/><path fill="none" d="M648.649 108.108h54.054v54.054h-54.054zM756.757 108.108h54.054v54.054h-54.054zM810.811 108.108h54.054v54.054h-54.054zM918.919 108.108h54.054v54.054h-54.054zM972.973 108.108h54.054v54.054h-54.054zM1189.189 108.108h54.054v54.054h-54.054z"/><path fill="#f0f0f0fd" d="M1243.243 108.108h54.054v54.054h-54.054z"/><path fill="none" d="M1297.297 108.108h54.054v54.054h-54.054zM1351.351 108.108h54.054v54.054h-54.054zM1459.459 108.108h54.054v54.054h-54.054z"/><path fill="#f0f0f0fd" d="M1513.514 108.108h54.054v54.054h-54.054z"/><path fill="#f0f0f0cf" d="M1567.568 108.108h54.054v54.054h-54.054z"/><path fill="#f0f0f0b7" d="M1783.784 108.108h54.054v54.054h-54.054z"/><path fill="#f0f0f0ad" d="M0 162.162h54.054v54.054H0z"/><path fill="#f0f0f089" d="M54.054 162.162h54.054v54.054H54.054z"/><path fill="none" d="M108.108 162.162h54.054v54.054h-54.054z"/><path fill="#f0f0f042" d="M216.216 162.162h54.054v54.054h-54.054z"/><path fill="none" d="M378.378 162.162h54.054v54.054h-54.054zM486.486 162.162h54.054v54.054h-54.054zM594.595 162.162h54.054v54.054h-54.054z"/><path fill="#f0f0f068" d="M702.703 162.162h54.054v54.054h-54.054z"/><path fill="#f0f0f010" d="M756.757 162.162h54.054v54.054h-54.054z"/><path fill="#f0f0f078" d="M864.865 162.162h54.054v54.054h-54.054z"/><path fill="none" d="M918.919 162.162h54.054v54.054h-54.054z"/><path fill="#f0f0f0a7" d="M1081.081 162.162h54.054v54.054h-54.054z"/><path fill="none" d="M1135.135 162.162h54.054v54.054h-54.054z"/><path fill="#f0f0f0e2" d="M1189.189 162.162h54.054v54.054h-54.054z"/><path fill="none" d="M1243.243 162.162h54.054v54.054h-54.054z"/><path fill="#f0f0f0cb" d="M1297.297 162.162h54.054v54.054h-54.054z"/><path fill="none" d="M1351.351 162.162h54.054v54.054h-54.054z"/><path fill="none" d="M1405.405 162.162h54.054v54.054h-54.054zM1567.568 162.162h54.054v54.054h-54.054z"/><path fill="#f0f0f0bd" d="M1783.784 162.162h54.054v54.054h-54.054z"/><path fill="#f0f0f0a5" d="M1891.892 162.162h54.054v54.054h-54.054z"/><path fill="none" d="M0 216.216h54.054v54.054H0z"/><path fill="#f0f0f048" d="M54.054 216.216h54.054v54.054H54.054z"/><path fill="#f0f0f064" d="M162.162 216.216h54.054v54.054h-54.054z"/><path fill="none" d="M270.27 216.216h54.054v54.054H270.27zM378.378 216.216h54.054v54.054h-54.054zM432.432 216.216h54.054v54.054h-54.054z"/><path fill="#f0f0f05c" d="M486.486 216.216h54.054v54.054h-54.054z"/><path fill="none" d="M594.595 216.216h54.054v54.054h-54.054zM648.649 216.216h54.054v54.054h-54.054zM702.703 216.216h54.054v54.054h-54.054zM756.757 216.216h54.054v54.054h-54.054zM864.865 216.216h54.054v54.054h-54.054z"/><path fill="#f0f0f028" d="M918.919 216.216h54.054v54.054h-54.054z"/><path fill="none" d="M1027.027 216.216h54.054v54.054h-54.054z"/><path fill="#f0f0f015" d="M1081.081 216.216h54.054v54.054h-54.054z"/><path fill="#f0f0f0d0" d="M1243.243 216.216h54.054v54.054h-54.054z"/><path fill="none" d="M1297.297 216.216h54.054v54.054h-54.054zM1351.351 216.216h54.054v54.054h-54.054z"/><path fill="none" d="M1405.405 216.216h54.054v54.054h-54.054zM1567.568 216.216h54.054v54.054h-54.054z"/><path fill="#f0f0f06b" d="M1621.622 216.216h54.054v54.054h-54.054z"/><path fill="#f0f0f067" d="M1675.676 216.216h54.054v54.054h-54.054z"/><path fill="#f0f0f0a2" d="M1729.73 216.216h54.054v54.054h-54.054z"/><path fill="#f0f0f0cd" d="M1783.784 216.216h54.054v54.054h-54.054z"/><path fill="#f0f0f085" d="M1837.838 216.216h54.054v54.054h-54.054z"/><path fill="none" d="M1891.892 216.216h54.054v54.054h-54.054z"/><path fill="#f0f0f0aa" d="M1945.946 216.216H2000v54.054h-54.054z"/><path fill="none" d="M0 270.27h54.054v54.054H0z"/><path fill="#f0f0f0cc" d="M54.054 270.27h54.054v54.054H54.054z"/><path fill="none" d="M162.162 270.27h54.054v54.054h-54.054z"/><path fill="none" d="M216.216 270.27h54.054v54.054h-54.054zM270.27 270.27h54.054v54.054H270.27z"/><path fill="#f0f0f0a0" d="M378.378 270.27h54.054v54.054h-54.054z"/><path fill="none" d="M432.432 270.27h54.054v54.054h-54.054zM540.541 270.27h54.054v54.054h-54.054zM594.595 270.27h54.054v54.054h-54.054zM756.757 270.27h54.054v54.054h-54.054z"/><path fill="#f0f0f0b9" d="M810.811 270.27h54.054v54.054h-54.054z"/><path fill="#f0f0f058" d="M864.865 270.27h54.054v54.054h-54.054z"/><path fill="#f0f0f0eb" d="M972.973 270.27h54.054v54.054h-54.054z"/><path fill="none" d="M1027.027 270.27h54.054v54.054h-54.054z"/><path fill="none" d="M1081.081 270.27h54.054v54.054h-54.054zM1135.135 270.27h54.054v54.054h-54.054zM1189.189 270.27h54.054v54.054h-54.054z"/><path fill="#f0f0f0de" d="M1243.243 270.27h54.054v54.054h-54.054z"/><path fill="#f0f0f049" d="M1297.297 270.27h54.054v54.054h-54.054z"/><path fill="none" d="M1513.514 270.27h54.054v54.054h-54.054zM1567.568 270.27h54.054v54.054h-54.054z"/><path fill="#f0f0f000" d="M1675.676 270.27h54.054v54.054h-54.054z"/><path fill="none" d="M1783.784 270.27h54.054v54.054h-54.054z"/><path fill="#f0f0f00d" d="M1837.838 270.27h54.054v54.054h-54.054z"/><path fill="none" d="M1891.892 270.27h54.054v54.054h-54.054z"/><path fill="none" d="M1945.946 270.27H2000v54.054h-54.054zM0 324.324h54.054v54.054H0zM54.054 324.324h54.054v54.054H54.054zM108.108 324.324h54.054v54.054h-54.054z"/><path fill="#f0f0f01e" d="M162.162 324.324h54.054v54.054h-54.054z"/><path fill="none" d="M216.216 324.324h54.054v54.054h-54.054zM270.27 324.324h54.054v54.054H270.27zM324.324 324.324h54.054v54.054h-54.054z"/><path fill="none" d="M378.378 324.324h54.054v54.054h-54.054z"/><path fill="#f0f0f0b0" d="M432.432 324.324h54.054v54.054h-54.054z"/><path fill="none" d="M540.541 324.324h54.054v54.054h-54.054zM702.703 324.324h54.054v54.054h-54.054z"/><path fill="#f0f0f076" d="M756.757 324.324h54.054v54.054h-54.054z"/><path fill="#f0f0f048" d="M810.811 324.324h54.054v54.054h-54.054z"/><path fill="none" d="M864.865 324.324h54.054v54.054h-54.054z"/><path fill="#f0f0f0dc" d="M918.919 324.324h54.054v54.054h-54.054z"/><path fill="none" d="M972.973 324.324h54.054v54.054h-54.054z"/><path fill="#f0f0f0e6" d="M1027.027 324.324h54.054v54.054h-54.054z"/><path fill="none" d="M1081.081 324.324h54.054v54.054h-54.054zM1135.135 324.324h54.054v54.054h-54.054zM1189.189 324.324h54.054v54.054h-54.054zM1297.297 324.324h54.054v54.054h-54.054z"/><path fill="#f0f0f021" d="M1351.351 324.324h54.054v54.054h-54.054z"/><path fill="none" d="M1459.459 324.324h54.054v54.054h-54.054z"/><path fill="#f0f0f088" d="M1567.568 324.324h54.054v54.054h-54.054z"/><path fill="none" d="M1729.73 324.324h54.054v54.054h-54.054zM1783.784 324.324h54.054v54.054h-54.054z"/><path fill="#f0f0f003" d="M0 378.378h54.054v54.054H0z"/><path fill="#f0f0f0dc" d="M54.054 378.378h54.054v54.054H54.054z"/><path fill="none" d="M270.27 378.378h54.054v54.054H270.27zM324.324 378.378h54.054v54.054h-54.054z"/><path fill="#f0f0f04a" d="M432.432 378.378h54.054v54.054h-54.054z"/><path fill="#f0f0f0ec" d="M486.486 378.378h54.054v54.054h-54.054z"/><path fill="none" d="M594.595 378.378h54.054v54.054h-54.054zM648.649 378.378h54.054v54.054h-54.054zM702.703 378.378h54.054v54.054h-54.054zM756.757 378.378h54.054v54.054h-54.054z"/><path fill="#f0f0f0bd" d="M810.811 378.378h54.054v54.054h-54.054z"/><path fill="none" d="M864.865 378.378h54.054v54.054h-54.054z"/><path fill="#f0f0f06f" d="M918.919 378.378h54.054v54.054h-54.054z"/><path fill="none" d="M972.973 378.378h54.054v54.054h-54.054z"/><path fill="#f0f0f023" d="M1297.297 378.378h54.054v54.054h-54.054z"/><path fill="none" d="M1459.459 378.378h54.054v54.054h-54.054zM1567.568 378.378h54.054v54.054h-54.054zM1621.622 378.378h54.054v54.054h-54.054z"/><path fill="none" d="M1675.676 378.378h54.054v54.054h-54.054zM1729.73 378.378h54.054v54.054h-54.054zM1783.784 378.378h54.054v54.054h-54.054z"/><path fill="#f0f0f058" d="M1891.892 378.378h54.054v54.054h-54.054z"/><path fill="none" d="M108.108 432.432h54.054v54.054h-54.054zM162.162 432.432h54.054v54.054h-54.054z"/><path fill="none" d="M216.216 432.432h54.054v54.054h-54.054zM324.324 432.432h54.054v54.054h-54.054z"/><path fill="none" d="M378.378 432.432h54.054v54.054h-54.054z"/><path fill="#f0f0f036" d="M432.432 432.432h54.054v54.054h-54.054z"/><path fill="none" d="M648.649 432.432h54.054v54.054h-54.054z"/><path fill="#f0f0f070" d="M702.703 432.432h54.054v54.054h-54.054z"/><path fill="none" d="M756.757 432.432h54.054v54.054h-54.054z"/><path fill="#f0f0f0f8" d="M810.811 432.432h54.054v54.054h-54.054z"/><path fill="none" d="M864.865 432.432h54.054v54.054h-54.054z"/><path fill="#f0f0f043" d="M918.919 432.432h54.054v54.054h-54.054z"/><path fill="#f0f0f09d" d="M972.973 432.432h54.054v54.054h-54.054z"/><path fill="none" d="M1027.027 432.432h54.054v54.054h-54.054z"/><path fill="none" d="M1081.081 432.432h54.054v54.054h-54.054zM1135.135 432.432h54.054v54.054h-54.054z"/><path fill="#f0f0f0bc" d="M1189.189 432.432h54.054v54.054h-54.054z"/><path fill="#f0f0f0ec" d="M1243.243 432.432h54.054v54.054h-54.054z"/><path fill="#f0f0f0f1" d="M1297.297 432.432h54.054v54.054h-54.054z"/><path fill="none" d="M1405.405 432.432h54.054v54.054h-54.054zM1621.622 432.432h54.054v54.054h-54.054z"/><path fill="#f0f0f0a3" d="M1729.73 432.432h54.054v54.054h-54.054z"/><path fill="none" d="M1837.838 432.432h54.054v54.054h-54.054zM1891.892 432.432h54.054v54.054h-54.054z"/><path fill="#f0f0f0cf" d="M0 486.486h54.054v54.054H0z"/><path fill="none" d="M54.054 486.486h54.054v54.054H54.054zM108.108 486.486h54.054v54.054h-54.054zM162.162 486.486h54.054v54.054h-54.054z"/><path fill="none" d="M216.216 486.486h54.054v54.054h-54.054zM270.27 486.486h54.054v54.054H270.27zM324.324 486.486h54.054v54.054h-54.054z"/><path fill="none" d="M378.378 486.486h54.054v54.054h-54.054z"/><path fill="#f0f0f081" d="M648.649 486.486h54.054v54.054h-54.054z"/><path fill="none" d="M702.703 486.486h54.054v54.054h-54.054zM756.757 486.486h54.054v54.054h-54.054z"/><path fill="#f0f0f0bf" d="M864.865 486.486h54.054v54.054h-54.054z"/><path fill="none" d="M918.919 486.486h54.054v54.054h-54.054zM1081.081 486.486h54.054v54.054h-54.054zM1243.243 486.486h54.054v54.054h-54.054zM1297.297 486.486h54.054v54.054h-54.054zM1351.351 486.486h54.054v54.054h-54.054z"/><path fill="#f0f0f03f" d="M1567.568 486.486h54.054v54.054h-54.054z"/><path fill="none" d="M1621.622 486.486h54.054v54.054h-54.054zM1729.73 486.486h54.054v54.054h-54.054z"/><path fill="#f0f0f097" d="M1891.892 486.486h54.054v54.054h-54.054z"/><path fill="none" d="M0 540.541h54.054v54.054H0zM108.108 540.541h54.054v54.054h-54.054zM162.162 540.541h54.054v54.054h-54.054z"/><path fill="#f0f0f015" d="M216.216 540.541h54.054v54.054h-54.054z"/><path fill="#f0f0f0ac" d="M270.27 540.541h54.054v54.054H270.27z"/><path fill="#f0f0f0eb" d="M324.324 540.541h54.054v54.054h-54.054z"/><path fill="none" d="M378.378 540.541h54.054v54.054h-54.054zM540.541 540.541h54.054v54.054h-54.054z"/><path fill="#f0f0f090" d="M594.595 540.541h54.054v54.054h-54.054z"/><path fill="#f0f0f025" d="M756.757 540.541h54.054v54.054h-54.054z"/><path fill="none" d="M810.811 540.541h54.054v54.054h-54.054zM864.865 540.541h54.054v54.054h-54.054zM918.919 540.541h54.054v54.054h-54.054zM1027.027 540.541h54.054v54.054h-54.054zM1243.243 540.541h54.054v54.054h-54.054z"/><path fill="#f0f0f06c" d="M1297.297 540.541h54.054v54.054h-54.054z"/><path fill="none" d="M1351.351 540.541h54.054v54.054h-54.054z"/><path fill="#f0f0f04f" d="M1459.459 540.541h54.054v54.054h-54.054z"/><path fill="none" d="M1567.568 540.541h54.054v54.054h-54.054z"/><path fill="#f0f0f056" d="M1621.622 540.541h54.054v54.054h-54.054z"/><path fill="none" d="M1675.676 540.541h54.054v54.054h-54.054z"/><path fill="#f0f0f085" d="M1729.73 540.541h54.054v54.054h-54.054z"/><path fill="none" d="M1783.784 540.541h54.054v54.054h-54.054z"/><path fill="#f0f0f0d3" d="M1837.838 540.541h54.054v54.054h-54.054z"/><path fill="none" d="M1945.946 540.541H2000v54.054h-54.054zM0 594.595h54.054v54.054H0zM108.108 594.595h54.054v54.054h-54.054z"/><path fill="#f0f0f096" d="M162.162 594.595h54.054v54.054h-54.054z"/><path fill="none" d="M324.324 594.595h54.054v54.054h-54.054z"/><path fill="none" d="M378.378 594.595h54.054v54.054h-54.054zM432.432 594.595h54.054v54.054h-54.054zM540.541 594.595h54.054v54.054h-54.054z"/><path fill="#f0f0f054" d="M594.595 594.595h54.054v54.054h-54.054z"/><path fill="none" d="M648.649 594.595h54.054v54.054h-54.054zM756.757 594.595h54.054v54.054h-54.054z"/><path fill="#f0f0f0aa" d="M918.919 594.595h54.054v54.054h-54.054z"/><path fill="none" d="M1027.027 594.595h54.054v54.054h-54.054z"/><path fill="none" d="M1081.081 594.595h54.054v54.054h-54.054zM1135.135 594.595h54.054v54.054h-54.054z"/><path fill="#f0f0f04a" d="M1243.243 594.595h54.054v54.054h-54.054z"/><path fill="none" d="M1351.351 594.595h54.054v54.054h-54.054z"/><path fill="none" d="M1405.405 594.595h54.054v54.054h-54.054zM1567.568 594.595h54.054v54.054h-54.054z"/><path fill="#f0f0f075" d="M1675.676 594.595h54.054v54.054h-54.054z"/><path fill="#f0f0f082" d="M1891.892 594.595h54.054v54.054h-54.054z"/><path fill="none" d="M1945.946 594.595H2000v54.054h-54.054zM54.054 648.649h54.054v54.054H54.054zM108.108 648.649h54.054v54.054h-54.054zM162.162 648.649h54.054v54.054h-54.054z"/><path fill="none" d="M216.216 648.649h54.054v54.054h-54.054zM270.27 648.649h54.054v54.054H270.27zM378.378 648.649h54.054v54.054h-54.054zM432.432 648.649h54.054v54.054h-54.054zM486.486 648.649h54.054v54.054h-54.054zM540.541 648.649h54.054v54.054h-54.054zM594.595 648.649h54.054v54.054h-54.054z"/><path fill="#f0f0f016" d="M648.649 648.649h54.054v54.054h-54.054z"/><path fill="#f0f0f039" d="M702.703 648.649h54.054v54.054h-54.054z"/><path fill="none" d="M756.757 648.649h54.054v54.054h-54.054z"/><path fill="#f0f0f0a7" d="M810.811 648.649h54.054v54.054h-54.054z"/><path fill="none" d="M864.865 648.649h54.054v54.054h-54.054z"/><path fill="#f0f0f0af" d="M918.919 648.649h54.054v54.054h-54.054z"/><path fill="none" d="M1027.027 648.649h54.054v54.054h-54.054z"/><path fill="none" d="M1081.081 648.649h54.054v54.054h-54.054zM1243.243 648.649h54.054v54.054h-54.054z"/><path fill="#f0f0f029" d="M1297.297 648.649h54.054v54.054h-54.054z"/><path fill="#f0f0f02f" d="M1351.351 648.649h54.054v54.054h-54.054z"/><path fill="#f0f0f06d" d="M1513.514 648.649h54.054v54.054h-54.054z"/><path fill="#f0f0f035" d="M1621.622 648.649h54.054v54.054h-54.054z"/><path fill="none" d="M1675.676 648.649h54.054v54.054h-54.054z"/><path fill="#f0f0f089" d="M1729.73 648.649h54.054v54.054h-54.054z"/><path fill="none" d="M1783.784 648.649h54.054v54.054h-54.054z"/><path fill="#f0f0f0aa" d="M1837.838 648.649h54.054v54.054h-54.054z"/><path fill="none" d="M1945.946 648.649H2000v54.054h-54.054z"/><path fill="#f0f0f0f3" d="M0 702.703h54.054v54.054H0z"/><path fill="none" d="M162.162 702.703h54.054v54.054h-54.054zM270.27 702.703h54.054v54.054H270.27z"/><path fill="#f0f0f012" d="M324.324 702.703h54.054v54.054h-54.054z"/><path fill="#f0f0f0e5" d="M432.432 702.703h54.054v54.054h-54.054z"/><path fill="#f0f0f04e" d="M540.541 702.703h54.054v54.054h-54.054z"/><path fill="none" d="M594.595 702.703h54.054v54.054h-54.054z"/><path fill="#f0f0f095" d="M648.649 702.703h54.054v54.054h-54.054z"/><path fill="#f0f0f02c" d="M702.703 702.703h54.054v54.054h-54.054z"/><path fill="#f0f0f09a" d="M756.757 702.703h54.054v54.054h-54.054z"/><path fill="none" d="M810.811 702.703h54.054v54.054h-54.054zM864.865 702.703h54.054v54.054h-54.054z"/><path fill="#f0f0f0c4" d="M918.919 702.703h54.054v54.054h-54.054z"/><path fill="none" d="M1027.027 702.703h54.054v54.054h-54.054z"/><path fill="none" d="M1081.081 702.703h54.054v54.054h-54.054z"/><path fill="#f0f0f0b7" d="M1135.135 702.703h54.054v54.054h-54.054z"/><path fill="#f0f0f067" d="M1189.189 702.703h54.054v54.054h-54.054z"/><path fill="none" d="M1243.243 702.703h54.054v54.054h-54.054zM1297.297 702.703h54.054v54.054h-54.054z"/><path fill="#f0f0f0b9" d="M1459.459 702.703h54.054v54.054h-54.054z"/><path fill="none" d="M1513.514 702.703h54.054v54.054h-54.054zM1675.676 702.703h54.054v54.054h-54.054zM1783.784 702.703h54.054v54.054h-54.054z"/><path fill="none" d="M1837.838 702.703h54.054v54.054h-54.054zM1891.892 702.703h54.054v54.054h-54.054z"/><path fill="none" d="M1945.946 702.703H2000v54.054h-54.054z"/><path fill="#f0f0f0b1" d="M54.054 756.757h54.054v54.054H54.054z"/><path fill="none" d="M108.108 756.757h54.054v54.054h-54.054zM270.27 756.757h54.054v54.054H270.27zM324.324 756.757h54.054v54.054h-54.054zM432.432 756.757h54.054v54.054h-54.054z"/><path fill="#f0f0f0a5" d="M486.486 756.757h54.054v54.054h-54.054z"/><path fill="#f0f0f07e" d="M540.541 756.757h54.054v54.054h-54.054z"/><path fill="none" d="M594.595 756.757h54.054v54.054h-54.054zM702.703 756.757h54.054v54.054h-54.054z"/><path fill="#f0f0f084" d="M810.811 756.757h54.054v54.054h-54.054z"/><path fill="none" d="M864.865 756.757h54.054v54.054h-54.054zM918.919 756.757h54.054v54.054h-54.054zM972.973 756.757h54.054v54.054h-54.054zM1189.189 756.757h54.054v54.054h-54.054z"/><path fill="none" d="M1243.243 756.757h54.054v54.054h-54.054z"/><path fill="#f0f0f028" d="M1297.297 756.757h54.054v54.054h-54.054z"/><path fill="#f0f0f091" d="M1351.351 756.757h54.054v54.054h-54.054z"/><path fill="none" d="M1513.514 756.757h54.054v54.054h-54.054zM1567.568 756.757h54.054v54.054h-54.054zM1675.676 756.757h54.054v54.054h-54.054zM1729.73 756.757h54.054v54.054h-54.054zM1783.784 756.757h54.054v54.054h-54.054z"/><path fill="#f0f0f043" d="M1837.838 756.757h54.054v54.054h-54.054z"/><path fill="none" d="M1891.892 756.757h54.054v54.054h-54.054z"/><path fill="none" d="M1945.946 756.757H2000v54.054h-54.054zM54.054 810.811h54.054v54.054H54.054zM108.108 810.811h54.054v54.054h-54.054zM162.162 810.811h54.054v54.054h-54.054zM270.27 810.811h54.054v54.054H270.27z"/><path fill="#f0f0f0bf" d="M432.432 810.811h54.054v54.054h-54.054z"/><path fill="none" d="M540.541 810.811h54.054v54.054h-54.054zM594.595 810.811h54.054v54.054h-54.054zM648.649 810.811h54.054v54.054h-54.054z"/><path fill="#f0f0f0cd" d="M756.757 810.811h54.054v54.054h-54.054z"/><path fill="#f0f0f073" d="M810.811 810.811h54.054v54.054h-54.054z"/><path fill="none" d="M864.865 810.811h54.054v54.054h-54.054zM918.919 810.811h54.054v54.054h-54.054zM1027.027 810.811h54.054v54.054h-54.054zM1135.135 810.811h54.054v54.054h-54.054zM1189.189 810.811h54.054v54.054h-54.054z"/><path fill="none" d="M1243.243 810.811h54.054v54.054h-54.054z"/><path fill="#f0f0f036" d="M1297.297 810.811h54.054v54.054h-54.054z"/><path fill="#f0f0f051" d="M1351.351 810.811h54.054v54.054h-54.054z"/><path fill="#f0f0f083" d="M1513.514 810.811h54.054v54.054h-54.054z"/><path fill="none" d="M1621.622 810.811h54.054v54.054h-54.054z"/><path fill="none" d="M1675.676 810.811h54.054v54.054h-54.054z"/><path fill="#f0f0f042" d="M1729.73 810.811h54.054v54.054h-54.054z"/><path fill="none" d="M1783.784 810.811h54.054v54.054h-54.054z"/><path fill="#f0f0f034" d="M1837.838 810.811h54.054v54.054h-54.054z"/><path fill="#f0f0f062" d="M1945.946 810.811H2000v54.054h-54.054z"/><path fill="none" d="M0 864.865h54.054v54.054H0zM54.054 864.865h54.054v54.054H54.054zM108.108 864.865h54.054v54.054h-54.054zM216.216 864.865h54.054v54.054h-54.054z"/><path fill="#f0f0f08e" d="M270.27 864.865h54.054v54.054H270.27z"/><path fill="none" d="M324.324 864.865h54.054v54.054h-54.054z"/><path fill="none" d="M378.378 864.865h54.054v54.054h-54.054zM432.432 864.865h54.054v54.054h-54.054z"/><path fill="#f0f0f0c3" d="M540.541 864.865h54.054v54.054h-54.054z"/><path fill="none" d="M648.649 864.865h54.054v54.054h-54.054zM756.757 864.865h54.054v54.054h-54.054zM810.811 864.865h54.054v54.054h-54.054z"/><path fill="#f0f0f0ab" d="M918.919 864.865h54.054v54.054h-54.054z"/><path fill="none" d="M972.973 864.865h54.054v54.054h-54.054z"/><path fill="#f0f0f0ea" d="M1027.027 864.865h54.054v54.054h-54.054z"/><path fill="#f0f0f03c" d="M1189.189 864.865h54.054v54.054h-54.054z"/><path fill="#f0f0f099" d="M1243.243 864.865h54.054v54.054h-54.054z"/><path fill="none" d="M1297.297 864.865h54.054v54.054h-54.054zM1351.351 864.865h54.054v54.054h-54.054z"/><path fill="none" d="M1405.405 864.865h54.054v54.054h-54.054zM1459.459 864.865h54.054v54.054h-54.054zM1513.514 864.865h54.054v54.054h-54.054z"/><path fill="#f0f0f0b5" d="M1567.568 864.865h54.054v54.054h-54.054z"/><path fill="#f0f0f0f0" d="M1783.784 864.865h54.054v54.054h-54.054z"/><path fill="none" d="M1837.838 864.865h54.054v54.054h-54.054z"/><path fill="#f0f0f076" d="M0 918.919h54.054v54.054H0z"/><path fill="none" d="M54.054 918.919h54.054v54.054H54.054zM108.108 918.919h54.054v54.054h-54.054zM162.162 918.919h54.054v54.054h-54.054z"/><path fill="none" d="M216.216 918.919h54.054v54.054h-54.054z"/><path fill="#f0f0f053" d="M270.27 918.919h54.054v54.054H270.27z"/><path fill="none" d="M324.324 918.919h54.054v54.054h-54.054z"/><path fill="none" d="M378.378 918.919h54.054v54.054h-54.054zM594.595 918.919h54.054v54.054h-54.054z"/><path fill="#f0f0f091" d="M648.649 918.919h54.054v54.054h-54.054z"/><path fill="none" d="M756.757 918.919h54.054v54.054h-54.054zM918.919 918.919h54.054v54.054h-54.054z"/><path fill="#f0f0f05a" d="M1027.027 918.919h54.054v54.054h-54.054z"/><path fill="none" d="M1081.081 918.919h54.054v54.054h-54.054zM1135.135 918.919h54.054v54.054h-54.054z"/><path fill="#f0f0f07d" d="M1189.189 918.919h54.054v54.054h-54.054z"/><path fill="none" d="M1243.243 918.919h54.054v54.054h-54.054zM1297.297 918.919h54.054v54.054h-54.054zM1405.405 918.919h54.054v54.054h-54.054z"/><path fill="#f0f0f092" d="M1459.459 918.919h54.054v54.054h-54.054z"/><path fill="#f0f0f05d" d="M1513.514 918.919h54.054v54.054h-54.054z"/><path fill="none" d="M1567.568 918.919h54.054v54.054h-54.054zM1675.676 918.919h54.054v54.054h-54.054zM1729.73 918.919h54.054v54.054h-54.054zM1783.784 918.919h54.054v54.054h-54.054z"/><path fill="#f0f0f038" d="M1837.838 918.919h54.054v54.054h-54.054z"/><path fill="none" d="M1891.892 918.919h54.054v54.054h-54.054z"/><path fill="none" d="M1945.946 918.919H2000v54.054h-54.054z"/><path fill="#f0f0f038" d="M54.054 972.973h54.054v54.054H54.054z"/><path fill="none" d="M108.108 972.973h54.054v54.054h-54.054zM324.324 972.973h54.054v54.054h-54.054z"/><path fill="#f0f0f0cc" d="M432.432 972.973h54.054v54.054h-54.054z"/><path fill="none" d="M540.541 972.973h54.054v54.054h-54.054zM594.595 972.973h54.054v54.054h-54.054zM810.811 972.973h54.054v54.054h-54.054z"/><path fill="#f0f0f005" d="M864.865 972.973h54.054v54.054h-54.054z"/><path fill="#f0f0f0c1" d="M972.973 972.973h54.054v54.054h-54.054z"/><path fill="none" d="M1081.081 972.973h54.054v54.054h-54.054z"/><path fill="#f0f0f0f8" d="M1189.189 972.973h54.054v54.054h-54.054z"/><path fill="none" d="M1243.243 972.973h54.054v54.054h-54.054zM1297.297 972.973h54.054v54.054h-54.054z"/><path fill="#f0f0f0c1" d="M1351.351 972.973h54.054v54.054h-54.054z"/><path fill="none" d="M1405.405 972.973h54.054v54.054h-54.054zM1459.459 972.973h54.054v54.054h-54.054zM1675.676 972.973h54.054v54.054h-54.054z"/><path fill="#f0f0f0b0" d="M1729.73 972.973h54.054v54.054h-54.054z"/><path fill="none" d="M1783.784 972.973h54.054v54.054h-54.054zM108.108 1027.027h54.054v54.054h-54.054zM162.162 1027.027h54.054v54.054h-54.054zM270.27 1027.027h54.054v54.054H270.27zM378.378 1027.027h54.054v54.054h-54.054z"/><path fill="#f0f0f03a" d="M432.432 1027.027h54.054v54.054h-54.054z"/><path fill="none" d="M486.486 1027.027h54.054v54.054h-54.054zM540.541 1027.027h54.054v54.054h-54.054zM648.649 1027.027h54.054v54.054h-54.054zM702.703 1027.027h54.054v54.054h-54.054zM810.811 1027.027h54.054v54.054h-54.054zM1081.081 1027.027h54.054v54.054h-54.054zM1135.135 1027.027h54.054v54.054h-54.054zM1351.351 1027.027h54.054v54.054h-54.054z"/><path fill="none" d="M1405.405 1027.027h54.054v54.054h-54.054z"/><path fill="#f0f0f0dd" d="M1567.568 1027.027h54.054v54.054h-54.054z"/><path fill="none" d="M1621.622 1027.027h54.054v54.054h-54.054zM1729.73 1027.027h54.054v54.054h-54.054zM1783.784 1027.027h54.054v54.054h-54.054z"/><path fill="#f0f0f083" d="M1837.838 1027.027h54.054v54.054h-54.054z"/><path fill="#f0f0f075" d="M1891.892 1027.027h54.054v54.054h-54.054z"/><path fill="none" d="M1945.946 1027.027H2000v54.054h-54.054z"/><path fill="#f0f0f064" d="M54.054 1081.081h54.054v54.054H54.054z"/><path fill="#f0f0f089" d="M108.108 1081.081h54.054v54.054h-54.054z"/><path fill="#f0f0f053" d="M216.216 1081.081h54.054v54.054h-54.054z"/><path fill="none" d="M324.324 1081.081h54.054v54.054h-54.054z"/><path fill="#f0f0f0bc" d="M432.432 1081.081h54.054v54.054h-54.054z"/><path fill="#f0f0f06a" d="M486.486 1081.081h54.054v54.054h-54.054z"/><path fill="none" d="M594.595 1081.081h54.054v54.054h-54.054zM648.649 1081.081h54.054v54.054h-54.054z"/><path fill="#f0f0f087" d="M756.757 1081.081h54.054v54.054h-54.054z"/><path fill="none" d="M810.811 1081.081h54.054v54.054h-54.054zM864.865 1081.081h54.054v54.054h-54.054zM1027.027 1081.081h54.054v54.054h-54.054z"/><path fill="none" d="M1081.081 1081.081h54.054v54.054h-54.054zM1135.135 1081.081h54.054v54.054h-54.054zM1189.189 1081.081h54.054v54.054h-54.054z"/><path fill="#f0f0f04d" d="M1243.243 1081.081h54.054v54.054h-54.054z"/><path fill="#f0f0f0fd" d="M1351.351 1081.081h54.054v54.054h-54.054z"/><path fill="#f0f0f054" d="M1621.622 1081.081h54.054v54.054h-54.054z"/><path fill="none" d="M1675.676 1081.081h54.054v54.054h-54.054zM1729.73 1081.081h54.054v54.054h-54.054zM1783.784 1081.081h54.054v54.054h-54.054z"/><path fill="none" d="M1837.838 1081.081h54.054v54.054h-54.054zM1891.892 1081.081h54.054v54.054h-54.054z"/><path fill="none" d="M1945.946 1081.081H2000v54.054h-54.054zM54.054 1135.135h54.054v54.054H54.054z"/><path fill="#f0f0f0a7" d="M108.108 1135.135h54.054v54.054h-54.054z"/><path fill="#f0f0f006" d="M162.162 1135.135h54.054v54.054h-54.054z"/><path fill="none" d="M216.216 1135.135h54.054v54.054h-54.054zM270.27 1135.135h54.054v54.054H270.27zM324.324 1135.135h54.054v54.054h-54.054zM486.486 1135.135h54.054v54.054h-54.054zM540.541 1135.135h54.054v54.054h-54.054zM594.595 1135.135h54.054v54.054h-54.054zM648.649 1135.135h54.054v54.054h-54.054zM702.703 1135.135h54.054v54.054h-54.054z"/><path fill="#f0f0f058" d="M756.757 1135.135h54.054v54.054h-54.054z"/><path fill="none" d="M918.919 1135.135h54.054v54.054h-54.054zM972.973 1135.135h54.054v54.054h-54.054z"/><path fill="#f0f0f026" d="M1189.189 1135.135h54.054v54.054h-54.054z"/><path fill="#f0f0f02c" d="M1297.297 1135.135h54.054v54.054h-54.054z"/><path fill="#f0f0f0f8" d="M1351.351 1135.135h54.054v54.054h-54.054z"/><path fill="none" d="M1405.405 1135.135h54.054v54.054h-54.054zM1459.459 1135.135h54.054v54.054h-54.054zM1513.514 1135.135h54.054v54.054h-54.054zM1567.568 1135.135h54.054v54.054h-54.054zM1675.676 1135.135h54.054v54.054h-54.054zM1729.73 1135.135h54.054v54.054h-54.054zM1783.784 1135.135h54.054v54.054h-54.054zM1891.892 1135.135h54.054v54.054h-54.054zM54.054 1189.189h54.054v54.054H54.054z"/><path fill="#f0f0f056" d="M108.108 1189.189h54.054v54.054h-54.054z"/><path fill="#f0f0f016" d="M162.162 1189.189h54.054v54.054h-54.054z"/><path fill="none" d="M216.216 1189.189h54.054v54.054h-54.054z"/><path fill="#f0f0f0fc" d="M270.27 1189.189h54.054v54.054H270.27z"/><path fill="none" d="M324.324 1189.189h54.054v54.054h-54.054z"/><path fill="#f0f0f02f" d="M378.378 1189.189h54.054v54.054h-54.054z"/><path fill="none" d="M486.486 1189.189h54.054v54.054h-54.054z"/><path fill="#f0f0f015" d="M594.595 1189.189h54.054v54.054h-54.054z"/><path fill="none" d="M648.649 1189.189h54.054v54.054h-54.054zM810.811 1189.189h54.054v54.054h-54.054z"/><path fill="#f0f0f002" d="M918.919 1189.189h54.054v54.054h-54.054z"/><path fill="none" d="M972.973 1189.189h54.054v54.054h-54.054z"/><path fill="#f0f0f0dc" d="M1027.027 1189.189h54.054v54.054h-54.054z"/><path fill="none" d="M1081.081 1189.189h54.054v54.054h-54.054zM1135.135 1189.189h54.054v54.054h-54.054zM1351.351 1189.189h54.054v54.054h-54.054z"/><path fill="none" d="M1405.405 1189.189h54.054v54.054h-54.054z"/><path fill="#f0f0f01a" d="M1459.459 1189.189h54.054v54.054h-54.054z"/><path fill="none" d="M1513.514 1189.189h54.054v54.054h-54.054zM1567.568 1189.189h54.054v54.054h-54.054z"/><path fill="#f0f0f0a7" d="M1621.622 1189.189h54.054v54.054h-54.054z"/><path fill="none" d="M1675.676 1189.189h54.054v54.054h-54.054zM1729.73 1189.189h54.054v54.054h-54.054zM1783.784 1189.189h54.054v54.054h-54.054z"/><path fill="none" d="M1837.838 1189.189h54.054v54.054h-54.054zM1945.946 1189.189H2000v54.054h-54.054z"/><path fill="#f0f0f041" d="M162.162 1243.243h54.054v54.054h-54.054z"/><path fill="none" d="M216.216 1243.243h54.054v54.054h-54.054zM378.378 1243.243h54.054v54.054h-54.054zM432.432 1243.243h54.054v54.054h-54.054z"/><path fill="#f0f0f04f" d="M486.486 1243.243h54.054v54.054h-54.054z"/><path fill="none" d="M648.649 1243.243h54.054v54.054h-54.054zM810.811 1243.243h54.054v54.054h-54.054zM918.919 1243.243h54.054v54.054h-54.054zM972.973 1243.243h54.054v54.054h-54.054zM1027.027 1243.243h54.054v54.054h-54.054zM1135.135 1243.243h54.054v54.054h-54.054z"/><path fill="#f0f0f0e4" d="M1189.189 1243.243h54.054v54.054h-54.054z"/><path fill="none" d="M1243.243 1243.243h54.054v54.054h-54.054zM1297.297 1243.243h54.054v54.054h-54.054zM1351.351 1243.243h54.054v54.054h-54.054z"/><path fill="#f0f0f0e5" d="M1405.405 1243.243h54.054v54.054h-54.054z"/><path fill="none" d="M1513.514 1243.243h54.054v54.054h-54.054z"/><path fill="#f0f0f061" d="M1621.622 1243.243h54.054v54.054h-54.054z"/><path fill="#f0f0f056" d="M1675.676 1243.243h54.054v54.054h-54.054z"/><path fill="none" d="M1783.784 1243.243h54.054v54.054h-54.054z"/><path fill="none" d="M1837.838 1243.243h54.054v54.054h-54.054zM1945.946 1243.243H2000v54.054h-54.054zM54.054 1297.297h54.054v54.054H54.054zM162.162 1297.297h54.054v54.054h-54.054z"/><path fill="#f0f0f0a4" d="M216.216 1297.297h54.054v54.054h-54.054z"/><path fill="none" d="M324.324 1297.297h54.054v54.054h-54.054z"/><path fill="none" d="M378.378 1297.297h54.054v54.054h-54.054zM540.541 1297.297h54.054v54.054h-54.054zM594.595 1297.297h54.054v54.054h-54.054zM702.703 1297.297h54.054v54.054h-54.054zM756.757 1297.297h54.054v54.054h-54.054zM918.919 1297.297h54.054v54.054h-54.054zM972.973 1297.297h54.054v54.054h-54.054zM1027.027 1297.297h54.054v54.054h-54.054z"/><path fill="#f0f0f0f9" d="M1081.081 1297.297h54.054v54.054h-54.054z"/><path fill="none" d="M1189.189 1297.297h54.054v54.054h-54.054z"/><path fill="#f0f0f08a" d="M1243.243 1297.297h54.054v54.054h-54.054z"/><path fill="none" d="M1351.351 1297.297h54.054v54.054h-54.054z"/><path fill="none" d="M1405.405 1297.297h54.054v54.054h-54.054zM1513.514 1297.297h54.054v54.054h-54.054zM1675.676 1297.297h54.054v54.054h-54.054zM1783.784 1297.297h54.054v54.054h-54.054z"/><path fill="#f0f0f033" d="M1891.892 1297.297h54.054v54.054h-54.054z"/><path fill="none" d="M0 1351.351h54.054v54.054H0zM108.108 1351.351h54.054v54.054h-54.054zM216.216 1351.351h54.054v54.054h-54.054zM324.324 1351.351h54.054v54.054h-54.054z"/><path fill="#f0f0f019" d="M378.378 1351.351h54.054v54.054h-54.054z"/><path fill="none" d="M432.432 1351.351h54.054v54.054h-54.054z"/><path fill="#f0f0f095" d="M486.486 1351.351h54.054v54.054h-54.054z"/><path fill="none" d="M540.541 1351.351h54.054v54.054h-54.054zM594.595 1351.351h54.054v54.054h-54.054z"/><path fill="#f0f0f00e" d="M918.919 1351.351h54.054v54.054h-54.054z"/><path fill="none" d="M972.973 1351.351h54.054v54.054h-54.054zM1027.027 1351.351h54.054v54.054h-54.054z"/><path fill="#f0f0f0a1" d="M1081.081 1351.351h54.054v54.054h-54.054z"/><path fill="none" d="M1135.135 1351.351h54.054v54.054h-54.054zM1189.189 1351.351h54.054v54.054h-54.054zM1351.351 1351.351h54.054v54.054h-54.054z"/><path fill="none" d="M1405.405 1351.351h54.054v54.054h-54.054zM1459.459 1351.351h54.054v54.054h-54.054zM1513.514 1351.351h54.054v54.054h-54.054zM1621.622 1351.351h54.054v54.054h-54.054zM1783.784 1351.351h54.054v54.054h-54.054z"/><path fill="none" d="M1837.838 1351.351h54.054v54.054h-54.054zM1891.892 1351.351h54.054v54.054h-54.054z"/><path fill="#f0f0f037" d="M1945.946 1351.351H2000v54.054h-54.054z"/><path fill="#f0f0f0d4" d="M0 1405.405h54.054v54.054H0z"/><path fill="none" d="M54.054 1405.405h54.054v54.054H54.054zM108.108 1405.405h54.054v54.054h-54.054z"/><path fill="#f0f0f0e6" d="M270.27 1405.405h54.054v54.054H270.27z"/><path fill="none" d="M324.324 1405.405h54.054v54.054h-54.054z"/><path fill="none" d="M378.378 1405.405h54.054v54.054h-54.054z"/><path fill="#f0f0f00e" d="M432.432 1405.405h54.054v54.054h-54.054z"/><path fill="none" d="M486.486 1405.405h54.054v54.054h-54.054zM594.595 1405.405h54.054v54.054h-54.054zM702.703 1405.405h54.054v54.054h-54.054zM756.757 1405.405h54.054v54.054h-54.054zM1027.027 1405.405h54.054v54.054h-54.054z"/><path fill="none" d="M1081.081 1405.405h54.054v54.054h-54.054zM1189.189 1405.405h54.054v54.054h-54.054z"/><path fill="none" d="M1243.243 1405.405h54.054v54.054h-54.054z"/><path fill="#f0f0f0e9" d="M1297.297 1405.405h54.054v54.054h-54.054z"/><path fill="#f0f0f0ba" d="M1405.405 1405.405h54.054v54.054h-54.054z"/><path fill="none" d="M1459.459 1405.405h54.054v54.054h-54.054zM1567.568 1405.405h54.054v54.054h-54.054zM1621.622 1405.405h54.054v54.054h-54.054z"/><path fill="none" d="M1675.676 1405.405h54.054v54.054h-54.054zM1729.73 1405.405h54.054v54.054h-54.054zM1783.784 1405.405h54.054v54.054h-54.054zM1891.892 1405.405h54.054v54.054h-54.054z"/><path fill="none" d="M1945.946 1405.405H2000v54.054h-54.054zM0 1459.459h54.054v54.054H0zM54.054 1459.459h54.054v54.054H54.054z"/><path fill="#f0f0f055" d="M108.108 1459.459h54.054v54.054h-54.054z"/><path fill="#f0f0f0fb" d="M216.216 1459.459h54.054v54.054h-54.054z"/><path fill="none" d="M432.432 1459.459h54.054v54.054h-54.054zM648.649 1459.459h54.054v54.054h-54.054zM702.703 1459.459h54.054v54.054h-54.054zM864.865 1459.459h54.054v54.054h-54.054zM918.919 1459.459h54.054v54.054h-54.054zM1081.081 1459.459h54.054v54.054h-54.054zM1243.243 1459.459h54.054v54.054h-54.054zM1297.297 1459.459h54.054v54.054h-54.054zM1405.405 1459.459h54.054v54.054h-54.054z"/><path fill="#f0f0f000" d="M1459.459 1459.459h54.054v54.054h-54.054z"/><path fill="#f0f0f0b8" d="M1513.514 1459.459h54.054v54.054h-54.054z"/><path fill="none" d="M1567.568 1459.459h54.054v54.054h-54.054zM1621.622 1459.459h54.054v54.054h-54.054z"/><path fill="none" d="M1675.676 1459.459h54.054v54.054h-54.054zM1783.784 1459.459h54.054v54.054h-54.054z"/><path fill="#f0f0f084" d="M1837.838 1459.459h54.054v54.054h-54.054z"/><path fill="#f0f0f048" d="M1891.892 1459.459h54.054v54.054h-54.054z"/></g><defs><radialGradient id="a"><stop offset="0" stop-color="#fff"/><stop offset="100%" stop-color="#fff" stop-opacity="0"/></radialGradient></defs></svg>