<svg width="88" height="80" viewBox="0 0 88 80" fill="none" xmlns="http://www.w3.org/2000/svg">
<g clip-path="url(#clip0_3628_1977)">
<path d="M75.5897 7.35609L2.0957 28.7692L4.04235 35.4504L77.5363 14.0374L75.5897 7.35609Z" fill="#3F3D56"/>
<path d="M10.8761 59.4586L0.043702 22.2796C-0.0366066 22.004 -0.00412408 21.7077 0.133999 21.456C0.272122 21.2043 0.504571 21.0178 0.780216 20.9375L72.4925 0.0434728C72.7681 -0.036566 73.0643 -0.00397339 73.3159 0.1341C73.5675 0.272173 73.7541 0.504445 73.8346 0.77993L83.4313 33.7178L83.1344 33.8044L73.5377 0.866466C73.48 0.669773 73.3467 0.503958 73.167 0.405349C72.9874 0.30674 72.7759 0.283376 72.579 0.340379L0.866733 21.2344C0.669843 21.2918 0.503808 21.425 0.405149 21.6048C0.30649 21.7846 0.283288 21.9962 0.340648 22.1931L11.1731 59.3721L10.8761 59.4586Z" fill="#3F3D56"/>
<path d="M67.5591 33.8709C67.3415 33.8706 67.1298 33.8 66.9558 33.6694C66.7817 33.5389 66.6546 33.3555 66.5935 33.1466L64.7767 26.9108C64.7024 26.6549 64.7327 26.3799 64.8609 26.1463C64.9891 25.9127 65.2048 25.7394 65.4605 25.6646L71.6964 23.8477C71.9524 23.7735 72.2273 23.8038 72.461 23.932C72.6946 24.0602 72.8678 24.2759 72.9426 24.5317L74.7595 30.7675C74.8338 31.0235 74.8035 31.2984 74.6753 31.532C74.5471 31.7657 74.3314 31.9389 74.0756 32.0138L67.8398 33.8306C67.7486 33.8573 67.6541 33.8708 67.5591 33.8709Z" fill="#6C63FF"/>
<path d="M10.7088 22.3946C10.6902 22.3305 10.6679 22.2675 10.6423 22.2059C10.4679 21.7827 10.1434 21.4389 9.7309 21.2405C9.31844 21.0421 8.84722 21.0032 8.40778 21.1311C7.96833 21.259 7.59167 21.5449 7.35017 21.9337C7.10867 22.3224 7.01936 22.7868 7.09941 23.2374C7.11065 23.3032 7.12563 23.3682 7.14426 23.4323C7.25719 23.8177 7.49195 24.1562 7.81338 24.3971C8.13481 24.638 8.52563 24.7683 8.9273 24.7684C9.10267 24.7688 9.27717 24.7438 9.44538 24.6942C9.9175 24.5562 10.3156 24.2367 10.5525 23.8056C10.7893 23.3745 10.8456 22.8671 10.7088 22.3946ZM9.35877 24.3973C8.96504 24.5115 8.54206 24.465 8.18258 24.2679C7.82311 24.0707 7.55649 23.7391 7.44117 23.3457C7.42307 23.2816 7.4086 23.2165 7.39783 23.1508C7.33982 22.7795 7.41904 22.3998 7.62067 22.0827C7.8223 21.7656 8.13253 21.5328 8.49335 21.4278C8.85418 21.3228 9.2409 21.3528 9.58119 21.5123C9.92148 21.6717 10.192 21.9496 10.3423 22.2941C10.3703 22.3545 10.3936 22.4171 10.4119 22.4812C10.526 22.8749 10.4792 23.2979 10.2818 23.6571C10.0843 24.0164 9.75234 24.2826 9.35877 24.3973Z" fill="#6C63FF"/>
<path d="M6.15703 23.7199C6.05806 23.38 6.06757 23.0177 6.18422 22.6835C6.30088 22.3493 6.51887 22.0598 6.80784 21.8553C6.53711 21.8421 6.26715 21.8938 6.02045 22.0061C5.77374 22.1183 5.55744 22.2879 5.38955 22.5007C5.22166 22.7135 5.10705 22.9633 5.05526 23.2294C5.00348 23.4954 5.01602 23.77 5.09184 24.0302C5.16766 24.2905 5.30456 24.5288 5.49114 24.7254C5.67773 24.922 5.90859 25.0712 6.1645 25.1605C6.42041 25.2498 6.69395 25.2767 6.96235 25.2389C7.23075 25.201 7.48622 25.0996 7.7075 24.9431C7.35392 24.9258 7.01454 24.7987 6.73663 24.5795C6.45871 24.3602 6.25611 24.0597 6.15703 23.7199Z" fill="#6C63FF"/>
<path d="M54.2308 31.3842C54.1979 31.2658 54.142 31.1551 54.0662 31.0584C53.9905 30.9617 53.8965 30.8809 53.7895 30.8205C53.6824 30.7602 53.5646 30.7216 53.4427 30.7068C53.3207 30.6921 53.197 30.7015 53.0787 30.7346L42.8118 33.6064L41.7061 33.9157H48.6497L49.7554 33.6064L53.5829 32.5363C53.8214 32.4692 54.0237 32.3103 54.1452 32.0943C54.2667 31.8782 54.2975 31.6228 54.2308 31.3842Z" fill="#CCCCCC"/>
<path d="M46.9672 29.2392C46.9003 29.0005 46.7413 28.7982 46.5253 28.6767C46.3092 28.5552 46.0537 28.5244 45.815 28.5912L30.4092 32.8997C30.194 32.9607 30.0076 33.0966 29.8836 33.2829C29.7597 33.4692 29.7064 33.6936 29.7334 33.9157H33.7217L34.8289 33.6064L46.3192 30.3929C46.558 30.3256 46.7603 30.1664 46.8818 29.9501C47.0033 29.7338 47.034 29.4781 46.9672 29.2392Z" fill="#CCCCCC"/>
<path d="M86.6283 33.6061H11.9341C11.6471 33.6064 11.3719 33.7206 11.169 33.9235C10.966 34.1264 10.8519 34.4016 10.8516 34.6886V78.9174C10.8519 79.2044 10.966 79.4796 11.169 79.6825C11.3719 79.8855 11.6471 79.9996 11.9341 80H86.6283C86.9153 79.9996 87.1905 79.8855 87.3934 79.6825C87.5963 79.4796 87.7105 79.2044 87.7108 78.9174V34.6886C87.7105 34.4016 87.5963 34.1265 87.3934 33.9235C87.1904 33.7206 86.9153 33.6064 86.6283 33.6061ZM87.4015 78.9174C87.4015 79.1225 87.32 79.3191 87.175 79.4641C87.03 79.6091 86.8333 79.6906 86.6283 79.6907H11.9341C11.729 79.6906 11.5324 79.6091 11.3874 79.4641C11.2424 79.3191 11.1609 79.1225 11.1609 78.9174V34.6886C11.1609 34.4836 11.2424 34.2869 11.3874 34.1419C11.5324 33.997 11.729 33.9155 11.9341 33.9154H86.6283C86.8333 33.9155 87.03 33.997 87.175 34.1419C87.3199 34.2869 87.4014 34.4836 87.4015 34.6886V78.9174Z" fill="#3F3D56"/>
<path d="M19.2019 39.6377C18.8349 39.6377 18.4761 39.5288 18.1709 39.3249C17.8658 39.121 17.6279 38.8312 17.4875 38.4921C17.347 38.153 17.3102 37.7798 17.3819 37.4199C17.4535 37.0599 17.6302 36.7292 17.8897 36.4697C18.1493 36.2102 18.4799 36.0334 18.8399 35.9618C19.1999 35.8902 19.573 35.927 19.9121 36.0674C20.2512 36.2079 20.541 36.4457 20.745 36.7509C20.9489 37.0561 21.0577 37.4149 21.0577 37.7819C21.0571 38.2739 20.8614 38.7456 20.5135 39.0935C20.1656 39.4414 19.6939 39.6371 19.2019 39.6377ZM19.2019 36.2354C18.8961 36.2354 18.5971 36.3261 18.3428 36.4961C18.0885 36.666 17.8903 36.9075 17.7732 37.1901C17.6562 37.4727 17.6255 37.7836 17.6852 38.0836C17.7449 38.3836 17.8922 38.6591 18.1084 38.8754C18.3247 39.0917 18.6003 39.239 18.9002 39.2987C19.2002 39.3583 19.5112 39.3277 19.7938 39.2106C20.0763 39.0936 20.3179 38.8954 20.4878 38.6411C20.6577 38.3868 20.7484 38.0878 20.7484 37.7819C20.7479 37.3719 20.5849 36.9788 20.295 36.6889C20.005 36.399 19.612 36.2359 19.2019 36.2354Z" fill="#6C63FF"/>
<path d="M16.3175 37.7819C16.3176 37.4279 16.428 37.0828 16.6335 36.7945C16.839 36.5063 17.1293 36.2893 17.4639 36.1738C17.2077 36.0854 16.934 36.0595 16.6658 36.0983C16.3975 36.1371 16.1424 36.2394 15.9217 36.3967C15.701 36.5541 15.5211 36.7619 15.3969 37.0028C15.2728 37.2437 15.208 37.5109 15.208 37.7819C15.208 38.053 15.2728 38.3201 15.3969 38.561C15.5211 38.802 15.701 39.0098 15.9217 39.1671C16.1424 39.3244 16.3975 39.4268 16.6658 39.4655C16.934 39.5043 17.2077 39.4784 17.4639 39.39C17.1293 39.2745 16.839 39.0576 16.6335 38.7693C16.428 38.4811 16.3176 38.1359 16.3175 37.7819Z" fill="#6C63FF"/>
<path d="M26.7243 59.7074C26.3553 59.7069 26.0016 59.5602 25.7406 59.2993C25.4797 59.0383 25.3329 58.6846 25.3325 58.3156V54.1401C25.3325 53.771 25.4792 53.417 25.7402 53.1559C26.0012 52.8949 26.3552 52.7483 26.7243 52.7483C27.0935 52.7483 27.4475 52.8949 27.7085 53.1559C27.9695 53.417 28.1162 53.771 28.1162 54.1401V58.3156C28.1157 58.6846 27.969 59.0383 27.708 59.2992C27.4471 59.5602 27.0933 59.7069 26.7243 59.7074Z" fill="#6C63FF"/>
<path d="M30.4358 59.7074C30.0668 59.7069 29.713 59.5602 29.4521 59.2993C29.1911 59.0383 29.0444 58.6846 29.0439 58.3156V54.1401C29.0439 53.771 29.1906 53.417 29.4516 53.1559C29.7126 52.8949 30.0666 52.7483 30.4358 52.7483C30.8049 52.7483 31.1589 52.8949 31.4199 53.1559C31.6809 53.417 31.8276 53.771 31.8276 54.1401V58.3156C31.8272 58.6846 31.6804 59.0383 31.4195 59.2992C31.1585 59.5602 30.8048 59.7069 30.4358 59.7074Z" fill="#6C63FF"/>
<path d="M34.1477 59.7074C33.7787 59.7069 33.4249 59.5602 33.164 59.2993C32.9031 59.0383 32.7563 58.6846 32.7559 58.3156V54.1401C32.7559 53.771 32.9025 53.417 33.1635 53.1559C33.4245 52.8949 33.7785 52.7483 34.1477 52.7483C34.5168 52.7483 34.8708 52.8949 35.1318 53.1559C35.3929 53.417 35.5395 53.771 35.5395 54.1401V58.3156C35.5391 58.6846 35.3923 59.0383 35.1314 59.2992C34.8704 59.5602 34.5167 59.7069 34.1477 59.7074Z" fill="#6C63FF"/>
<path d="M39.8694 59.7074C39.5004 59.7069 39.1466 59.5602 38.8857 59.2993C38.6247 59.0383 38.478 58.6846 38.4775 58.3156V54.1401C38.4775 53.771 38.6242 53.417 38.8852 53.1559C39.1462 52.8949 39.5002 52.7483 39.8694 52.7483C40.2385 52.7483 40.5925 52.8949 40.8535 53.1559C41.1145 53.417 41.2612 53.771 41.2612 54.1401V58.3156C41.2607 58.6846 41.114 59.0383 40.8531 59.2992C40.5921 59.5602 40.2384 59.7069 39.8694 59.7074Z" fill="#6C63FF"/>
<path d="M43.5808 59.7074C43.2118 59.7069 42.858 59.5602 42.5971 59.2993C42.3362 59.0383 42.1894 58.6846 42.189 58.3156V54.1401C42.189 53.771 42.3356 53.417 42.5966 53.1559C42.8576 52.8949 43.2116 52.7483 43.5808 52.7483C43.9499 52.7483 44.3039 52.8949 44.5649 53.1559C44.826 53.417 44.9726 53.771 44.9726 54.1401V58.3156C44.9722 58.6846 44.8254 59.0383 44.5645 59.2992C44.3036 59.5602 43.9498 59.7069 43.5808 59.7074Z" fill="#6C63FF"/>
<path d="M47.2922 59.7074C46.9232 59.7069 46.5694 59.5602 46.3085 59.2993C46.0476 59.0383 45.9008 58.6846 45.9004 58.3156V54.1401C45.9004 53.771 46.047 53.417 46.308 53.1559C46.5691 52.8949 46.9231 52.7483 47.2922 52.7483C47.6613 52.7483 48.0154 52.8949 48.2764 53.1559C48.5374 53.417 48.684 53.771 48.684 54.1401V58.3156C48.6836 58.6846 48.5368 59.0383 48.2759 59.2992C48.015 59.5602 47.6612 59.7069 47.2922 59.7074Z" fill="#6C63FF"/>
<path d="M53.0144 59.7074C52.6454 59.7069 52.2916 59.5602 52.0307 59.2993C51.7698 59.0383 51.623 58.6846 51.6226 58.3156V54.1401C51.6226 53.771 51.7692 53.417 52.0302 53.1559C52.2912 52.8949 52.6452 52.7483 53.0144 52.7483C53.3835 52.7483 53.7375 52.8949 53.9985 53.1559C54.2596 53.417 54.4062 53.771 54.4062 54.1401V58.3156C54.4058 58.6846 54.259 59.0383 53.9981 59.2992C53.7371 59.5602 53.3834 59.7069 53.0144 59.7074Z" fill="#6C63FF"/>
<path d="M56.7258 59.7074C56.3568 59.7069 56.003 59.5602 55.7421 59.2993C55.4812 59.0383 55.3344 58.6846 55.334 58.3156V54.1401C55.334 53.771 55.4806 53.417 55.7416 53.1559C56.0027 52.8949 56.3567 52.7483 56.7258 52.7483C57.0949 52.7483 57.4489 52.8949 57.71 53.1559C57.971 53.417 58.1176 53.771 58.1176 54.1401V58.3156C58.1172 58.6846 57.9704 59.0383 57.7095 59.2992C57.4486 59.5602 57.0948 59.7069 56.7258 59.7074Z" fill="#6C63FF"/>
<path d="M60.4372 59.7074C60.0682 59.7069 59.7145 59.5602 59.4535 59.2993C59.1926 59.0383 59.0458 58.6846 59.0454 58.3156V54.1401C59.0454 53.771 59.192 53.417 59.4531 53.1559C59.7141 52.8949 60.0681 52.7483 60.4372 52.7483C60.8064 52.7483 61.1604 52.8949 61.4214 53.1559C61.6824 53.417 61.829 53.771 61.829 54.1401V58.3156C61.8286 58.6846 61.6818 59.0383 61.4209 59.2992C61.16 59.5602 60.8062 59.7069 60.4372 59.7074Z" fill="#6C63FF"/>
<path d="M66.1594 59.7074C65.7904 59.7069 65.4366 59.5602 65.1757 59.2993C64.9148 59.0383 64.768 58.6846 64.7676 58.3156V54.1401C64.7676 53.771 64.9142 53.417 65.1752 53.1559C65.4362 52.8949 65.7903 52.7483 66.1594 52.7483C66.5285 52.7483 66.8825 52.8949 67.1436 53.1559C67.4046 53.417 67.5512 53.771 67.5512 54.1401V58.3156C67.5508 58.6846 67.404 59.0383 67.1431 59.2992C66.8822 59.5602 66.5284 59.7069 66.1594 59.7074Z" fill="#6C63FF"/>
<path d="M69.8708 59.7074C69.5018 59.7069 69.1481 59.5602 68.8871 59.2993C68.6262 59.0383 68.4794 58.6846 68.479 58.3156V54.1401C68.479 53.771 68.6256 53.417 68.8867 53.1559C69.1477 52.8949 69.5017 52.7483 69.8708 52.7483C70.24 52.7483 70.594 52.8949 70.855 53.1559C71.116 53.417 71.2626 53.771 71.2626 54.1401V58.3156C71.2622 58.6846 71.1154 59.0383 70.8545 59.2992C70.5936 59.5602 70.2398 59.7069 69.8708 59.7074Z" fill="#6C63FF"/>
<path d="M73.5822 59.7074C73.2132 59.7069 72.8595 59.5602 72.5986 59.2993C72.3376 59.0383 72.1909 58.6846 72.1904 58.3156V54.1401C72.1904 53.771 72.3371 53.417 72.5981 53.1559C72.8591 52.8949 73.2131 52.7483 73.5822 52.7483C73.9514 52.7483 74.3054 52.8949 74.5664 53.1559C74.8274 53.417 74.9741 53.771 74.9741 54.1401V58.3156C74.9736 58.6846 74.8269 59.0383 74.5659 59.2992C74.305 59.5602 73.9512 59.7069 73.5822 59.7074Z" fill="#6C63FF"/>
<path d="M36.1607 75.1978H16.1432C15.8952 75.1978 15.6573 75.0993 15.4819 74.9239C15.3065 74.7485 15.208 74.5106 15.208 74.2626C15.208 74.0146 15.3065 73.7767 15.4819 73.6013C15.6573 73.4259 15.8952 73.3274 16.1432 73.3274H36.1607C36.4087 73.3274 36.6466 73.4259 36.822 73.6013C36.9973 73.7767 37.0959 74.0146 37.0959 74.2626C37.0959 74.5106 36.9973 74.7485 36.822 74.9239C36.6466 75.0993 36.4087 75.1978 36.1607 75.1978Z" fill="#E6E6E6"/>
<path d="M29.743 71.177H22.5612C22.3131 71.177 22.0753 71.0785 21.8999 70.9031C21.7245 70.7277 21.626 70.4899 21.626 70.2418C21.626 69.9938 21.7245 69.7559 21.8999 69.5806C22.0753 69.4052 22.3131 69.3066 22.5612 69.3066H29.743C29.991 69.3066 30.2289 69.4052 30.4043 69.5806C30.5797 69.7559 30.6782 69.9938 30.6782 70.2418C30.6782 70.4899 30.5797 70.7277 30.4043 70.9031C30.2289 71.0785 29.991 71.177 29.743 71.177Z" fill="#E6E6E6"/>
<path d="M87.3456 42.851H11.105V43.1602H87.3456V42.851Z" fill="#3F3D56"/>
</g>
<defs>
<clipPath id="clip0_3628_1977">
<rect width="87.7108" height="80" fill="white"/>
</clipPath>
</defs>
</svg>
